HIERARCHY
ROOT Hips
{
  OFFSET 5.84602e-005 68.8428 3.50346
  CHANNELS 6 Xposition Yposition Zposition Zrotation Xrotation Yrotation
  JOINT Spine
  {
    OFFSET 0 8.597 -4.6522
    CHANNELS 3 Zrotation Xrotation Yrotation
    JOINT Spine1
    {
      OFFSET 0 7.8454 0.4098
      CHANNELS 3 Zrotation Xrotation Yrotation
      JOINT Spine2
      {
        OFFSET 0 9.7078 -2.1609
        CHANNELS 3 Zrotation Xrotation Yrotation
        JOINT Neck
        {
          OFFSET 0 21.8761 -0.4549
          CHANNELS 3 Zrotation Xrotation Yrotation
          JOINT Head
          {
            OFFSET 0 12.3537 3.3602
            CHANNELS 3 Zrotation Xrotation Yrotation
            End Site
            {
              OFFSET 0.0001 18.9506 0.5657
            }
          }
        }
        JOINT LeftShoulder
        {
          OFFSET 2.2086 21.1115 7.2329
          CHANNELS 3 Zrotation Xrotation Yrotation
          JOINT LeftArm
          {
            OFFSET 13.1193 3.0282 -4.8998
            CHANNELS 3 Zrotation Xrotation Yrotation
            JOINT LeftForeArm
            {
              OFFSET 27.4081 -0.0973053 -0.2375
              CHANNELS 3 Zrotation Xrotation Yrotation
              JOINT LeftHand
              {
                OFFSET 22.8641 0.0662994 -0.1369
                CHANNELS 3 Zrotation Xrotation Yrotation
                JOINT LeftHandIndex1
                {
                  OFFSET 8.8614 0.775009 2.4612
                  CHANNELS 3 Zrotation Xrotation Yrotation
                  JOINT LeftHandIndex2
                  {
                    OFFSET 3.3146 -0.808304 0.5841
                    CHANNELS 3 Zrotation Xrotation Yrotation
                    JOINT LeftHandIndex3
                    {
                      OFFSET 2.2628 -0.552002 0.3989
                      CHANNELS 3 Zrotation Xrotation Yrotation
                      End Site
                      {
                        OFFSET 1.6102 -0.4807 0.2612
                      }
                    }
                  }
                }
                JOINT LeftHandMiddle1
                {
                  OFFSET 8.9937 0.895004 0.2143
                  CHANNELS 3 Zrotation Xrotation Yrotation
                  JOINT LeftHandMiddle2
                  {
                    OFFSET 4.0984 0.0113983 -0.0242
                    CHANNELS 3 Zrotation Xrotation Yrotation
                    JOINT LeftHandMiddle3
                    {
                      OFFSET 2.2716 0.00689697 -0.0138001
                      CHANNELS 3 Zrotation Xrotation Yrotation
                      End Site
                      {
                        OFFSET 2.0404 -0.1441 0.0027
                      }
                    }
                  }
                }
                JOINT LeftHandRing1
                {
                  OFFSET 8.5234 0.597198 -2.0164
                  CHANNELS 3 Zrotation Xrotation Yrotation
                  JOINT LeftHandRing2
                  {
                    OFFSET 3.7188 -0.188293 -0.2328
                    CHANNELS 3 Zrotation Xrotation Yrotation
                    JOINT LeftHandRing3
                    {
                      OFFSET 2.1191 -0.106598 -0.1332
                      CHANNELS 3 Zrotation Xrotation Yrotation
                      End Site
                      {
                        OFFSET 1.8737 -0.2304 -0.0886
                      }
                    }
                  }
                }
                JOINT LeftHandPinky1
                {
                  OFFSET 7.9094 -0.601089 -3.4825
                  CHANNELS 3 Zrotation Xrotation Yrotation
                  JOINT LeftHandPinky2
                  {
                    OFFSET 2.2874 -0.477005 -0.6314
                    CHANNELS 3 Zrotation Xrotation Yrotation
                    JOINT LeftHandPinky3
                    {
                      OFFSET 1.6774 -0.349396 -0.4633
                      CHANNELS 3 Zrotation Xrotation Yrotation
                      End Site
                      {
                        OFFSET 1.4888 -0.4091 -0.3416
                      }
                    }
                  }
                }
                JOINT LeftHandThumb1
                {
                  OFFSET 1.833 -1.3875 1.3896
                  CHANNELS 3 Zrotation Xrotation Yrotation
                  JOINT LeftHandThumb2
                  {
                    OFFSET 3.4129 -1.121 2.5732
                    CHANNELS 3 Zrotation Xrotation Yrotation
                    JOINT LeftHandThumb3
                    {
                      OFFSET 2.2474 -0.804199 1.6192
                      CHANNELS 3 Zrotation Xrotation Yrotation
                      End Site
                      {
                        OFFSET 1.6527 -0.5689 1.1317
                      }
                    }
                  }
                }
              }
            }
          }
        }
        JOINT RightShoulder
        {
          OFFSET -2.2086 21.1115 7.2329
          CHANNELS 3 Zrotation Xrotation Yrotation
          JOINT RightArm
          {
            OFFSET -13.1216 3.0287 -4.9007
            CHANNELS 3 Zrotation Xrotation Yrotation
            JOINT RightForeArm
            {
              OFFSET -27.4081 -0.0973053 -0.2375
              CHANNELS 3 Zrotation Xrotation Yrotation
              JOINT RightHand
              {
                OFFSET -22.8641 0.0664063 -0.1369
                CHANNELS 3 Zrotation Xrotation Yrotation
                JOINT RightHandIndex1
                {
                  OFFSET -8.8614 0.774994 2.4612
                  CHANNELS 3 Zrotation Xrotation Yrotation
                  JOINT RightHandIndex2
                  {
                    OFFSET -3.3146 -0.808304 0.5841
                    CHANNELS 3 Zrotation Xrotation Yrotation
                    JOINT RightHandIndex3
                    {
                      OFFSET -2.2628 -0.552002 0.3989
                      CHANNELS 3 Zrotation Xrotation Yrotation
                      End Site
                      {
                        OFFSET -1.6102 -0.4807 0.2612
                      }
                    }
                  }
                }
                JOINT RightHandMiddle1
                {
                  OFFSET -8.9937 0.894989 0.2143
                  CHANNELS 3 Zrotation Xrotation Yrotation
                  JOINT RightHandMiddle2
                  {
                    OFFSET -4.0984 0.0113983 -0.0242
                    CHANNELS 3 Zrotation Xrotation Yrotation
                    JOINT RightHandMiddle3
                    {
                      OFFSET -2.2716 0.00691223 -0.0138001
                      CHANNELS 3 Zrotation Xrotation Yrotation
                      End Site
                      {
                        OFFSET -2.0404 -0.1441 0.0027
                      }
                    }
                  }
                }
                JOINT RightHandRing1
                {
                  OFFSET -8.5234 0.597198 -2.0164
                  CHANNELS 3 Zrotation Xrotation Yrotation
                  JOINT RightHandRing2
                  {
                    OFFSET -3.7188 -0.188309 -0.2328
                    CHANNELS 3 Zrotation Xrotation Yrotation
                    JOINT RightHandRing3
                    {
                      OFFSET -2.1191 -0.106598 -0.1332
                      CHANNELS 3 Zrotation Xrotation Yrotation
                      End Site
                      {
                        OFFSET -1.8737 -0.2304 -0.0886
                      }
                    }
                  }
                }
                JOINT RightHandPinky1
                {
                  OFFSET -7.9094 -0.601105 -3.4825
                  CHANNELS 3 Zrotation Xrotation Yrotation
                  JOINT RightHandPinky2
                  {
                    OFFSET -2.2874 -0.477005 -0.6314
                    CHANNELS 3 Zrotation Xrotation Yrotation
                    JOINT RightHandPinky3
                    {
                      OFFSET -1.6774 -0.349396 -0.4633
                      CHANNELS 3 Zrotation Xrotation Yrotation
                      End Site
                      {
                        OFFSET -1.4888 -0.4091 -0.3416
                      }
                    }
                  }
                }
                JOINT RightHandThumb1
                {
                  OFFSET -1.833 -1.38751 1.3896
                  CHANNELS 3 Zrotation Xrotation Yrotation
                  JOINT RightHandThumb2
                  {
                    OFFSET -3.41299 -1.12099 2.5732
                    CHANNELS 3 Zrotation Xrotation Yrotation
                    JOINT RightHandThumb3
                    {
                      OFFSET -2.24741 -0.804108 1.6192
                      CHANNELS 3 Zrotation Xrotation Yrotation
                      End Site
                      {
                        OFFSET -1.6527 -0.5689 1.1317
                      }
                    }
                  }
                }
              }
            }
          }
        }
      }
    }
  }
  JOINT RightUpLeg
  {
    OFFSET -9.1966 3.8861 -0.7581
    CHANNELS 3 Zrotation Xrotation Yrotation
    JOINT RightLeg
    {
      OFFSET -0.7359 -41.0265 0
      CHANNELS 3 Zrotation Xrotation Yrotation
      JOINT RightFoot
      {
        OFFSET 0 -40.2855 0
        CHANNELS 3 Zrotation Xrotation Yrotation
        JOINT RightToeBase
        {
          OFFSET 0 -5.6122 11.7359
          CHANNELS 3 Zrotation Xrotation Yrotation
          End Site
          {
            OFFSET 0 0 7.8731
          }
        }
      }
    }
  }
  JOINT LeftUpLeg
  {
    OFFSET 9.1965 3.8864 -0.7581
    CHANNELS 3 Zrotation Xrotation Yrotation
    JOINT LeftLeg
    {
      OFFSET 0.7359 -41.0268 0
      CHANNELS 3 Zrotation Xrotation Yrotation
      JOINT LeftFoot
      {
        OFFSET 0 -40.2855 0
        CHANNELS 3 Zrotation Xrotation Yrotation
        JOINT LeftToeBase
        {
          OFFSET 0 -5.6122 11.7359
          CHANNELS 3 Zrotation Xrotation Yrotation
          End Site
          {
            OFFSET 0 0 7.8731
          }
        }
      }
    }
  }
}
MOTION
Frames:	5
Frame Time:	0.0333333
5.84602e-005 68.8428 3.50346 0 0 -0 0 0 -0 0 0 -0 0 0 -0 0 0 -0 0 0 -0 0 0 -0 0 0 -0 0 0 -0 0 0 -0 0 0 -0 0 0 -0 0 0 -0 0 0 -0 -0.0146107 -8.87603e-005 -2.63497e-007 2.99804e-018 -2.42657e-020 -1.42182e-022 0 0 -0 -0.0187562 -0.001176 5.858e-005 5.06224e-018 3.88251e-019 1.21329e-020 0 0 -0 -0.012269 -0.00324817 0.000675346 -1.74678e-018 3.88251e-019 -0 0 0 -0 0 0 -0 0 0 -0 0 0 -0 0 0 -0 0 0 -0 0 0 -0 0 0 -0 0 0 -0 0 0 -0 0 0 -0 0.0149955 -9.10982e-005 2.64101e-007 -9.69331e-018 1.21329e-020 -4.7394e-023 0 0 -0 0.0189956 -0.00119102 -5.96516e-005 -5.41541e-019 0 2.42657e-020 0 0 -0 0.0122698 -0.00324857 -0.000673756 -2.00796e-019 0 -1.94126e-019 0 0 -0 0 0 -0 0 0 -0 3.39842 1.33031 -0.0637918 -5.65207e-008 0.834868 -0.000436188 -3.39935 -2.16518 -0.0642563 -8.89002e-024 -1.18485e-023 -1.48106e-024 -3.39844 1.35642 0.0640283 -3.18788e-007 0.782166 -0.000588827 3.39931 -2.13858 0.0634662 1.1399e-023 0 -0 
1.0322 42.0969 -18.2254 114.099 -57.1558 -0.300993 -0.0537874 -0.0966336 -0.084769 -0.107655 -0.193165 -0.169695 -0.107666 -0.193183 -0.169685 0.000507029 -12.8528 0.000383034 -8.3455e-006 -11.5813 2.1949e-006 -3.85099 -0.0995349 -0.146183 1.54739 -2.2504 -34.4344 9.62778 -9.59078 -20.0074 38.1474 0.0595634 0.0787542 1.28827e-006 -3.18078e-007 -1.06147e-006 1.93241e-006 -4.77117e-007 -1.5922e-006 6.44137e-007 -1.59039e-007 -5.30735e-007 1.28827e-006 -3.18078e-007 -1.06147e-006 -0.0146115 -8.51581e-005 -2.53605e-006 2.17949e-006 1.80554e-006 4.44392e-007 1.28827e-006 -3.18078e-007 -1.06147e-006 -0.0188346 -0.00119041 6.16514e-005 6.44145e-007 -1.58951e-007 -5.30767e-007 1.28827e-006 -3.18078e-007 -1.06147e-006 -0.0122272 -0.00323903 0.000671145 6.4413e-007 -1.58984e-007 -5.3077e-007 1.28827e-006 -3.18078e-007 -1.06147e-006 1.93241e-006 -4.77117e-007 -1.5922e-006 6.44137e-007 -1.59039e-007 -5.30735e-007 3.84987 -0.0998683 0.147775 -1.54909 -2.25106 34.4258 -9.62948 -9.59061 20.0052 -38.1509 0.0577106 -0.0792279 8.38642e-031 -3.18055e-015 1.51076e-014 6.36111e-015 -3.18055e-015 1.19271e-014 3.97252e-031 -1.59028e-015 1.43125e-014 8.38642e-031 -3.18055e-015 1.51076e-014 0.014981 -9.04675e-005 3.3995e-007 3.18055e-015 1.59028e-015 2.38542e-015 8.38642e-031 -3.18055e-015 1.51076e-014 0.0190071 -0.00119407 -6.08496e-005 -6.24852e-007 1.79539e-006 2.21663e-006 8.38642e-031 -3.18055e-015 1.51076e-014 0.0121863 -0.00323012 -0.000672341 6.25534e-007 -1.79504e-006 -2.21669e-006 8.38642e-031 -3.18055e-015 1.51076e-014 6.36111e-015 -3.18055e-015 1.19271e-014 3.97252e-031 -1.59028e-015 1.43125e-014 -57.4339 -80.1411 -71.5605 -29.9525 85.772 30.3514 -6.30926 30.9846 1.43952 2.96001e-006 -5.44676e-007 2.2887e-007 54.2863 -79.5554 68.212 32.7452 86.0992 -33.346 6.04288 29.8619 -1.43191 5.76083e-007 2.12343e-006 2.70253e-006 
0.51824 16.6475 -35.1426 12.0132 -85.3561 -176.711 -0.0888793 -0.150554 -0.139897 -0.178137 -0.300801 -0.280008 -0.178138 -0.300812 -0.280008 0.000699674 -20.8497 0.000715543 -1.11082e-006 -18.7505 1.29002e-007 -6.42163 -0.0215781 -0.798664 1.31982 -2.48236 -56.4296 12.2529 -14.0603 -33.3043 63.0346 -0.0712174 -0.0942759 -7.03767e-007 -5.41178e-007 5.33131e-006 6.48682e-007 5.45799e-007 -6.13393e-008 -6.57924e-007 -6.55968e-007 8.9168e-006 -7.03767e-007 -5.41178e-007 5.33131e-006 -0.014633 -8.81235e-005 -1.80472e-006 -7.04318e-007 -5.41862e-007 5.33124e-006 -7.03767e-007 -5.41178e-007 5.33131e-006 -0.0187705 -0.00117648 5.6877e-005 -6.56093e-007 -6.57319e-007 8.9167e-006 -7.03767e-007 -5.41178e-007 5.33131e-006 -0.0122116 -0.00323413 0.000679502 -7.04083e-007 -5.41865e-007 5.33129e-006 -7.03767e-007 -5.41178e-007 5.33131e-006 6.48682e-007 5.45799e-007 -6.13393e-008 -6.57924e-007 -6.55968e-007 8.9168e-006 6.41808 -0.0213244 0.792699 -1.32363 -2.48402 56.4326 -12.2577 -14.0614 33.2995 -63.0378 -0.0689769 0.0948574 1.402e-007 -9.5885e-008 -3.71956e-006 7.35317e-008 -1.45849e-007 -7.2672e-007 -2.88238e-015 2.38542e-014 -9.54166e-015 1.402e-007 -9.5885e-008 -3.71956e-006 0.0149864 -9.11143e-005 -3.35547e-006 1.61712e-007 -1.38945e-007 7.57223e-009 1.402e-007 -9.5885e-008 -3.71956e-006 0.0190054 -0.00119173 -5.19916e-005 2.40097e-008 -4.25972e-008 3.72711e-006 1.402e-007 -9.5885e-008 -3.71956e-006 0.0123025 -0.00325676 -0.000674385 1.61713e-007 -1.38945e-007 7.56448e-009 1.402e-007 -9.5885e-008 -3.71956e-006 7.35317e-008 -1.45849e-007 -7.2672e-007 -2.88238e-015 2.38542e-014 -9.54166e-015 -150.445 -36.889 -165.927 -173.76 39.1906 169.286 -8.57568 52.8675 0.680729 1.63483e-006 -3.07721e-006 4.11761e-007 150.592 -37.0997 166.446 173.632 39.7024 -168.896 8.60781 53.2513 -0.557575 -3.00763e-006 4.27412e-006 1.27144e-006 
0.324355 17.6339 -34.5414 9.13486 -86.1303 -176.267 -0.0875167 -0.120705 -0.136887 -0.17532 -0.241306 -0.273958 -0.17532 -0.241277 -0.273961 -0.000340096 -19.4052 -0.000371604 -2.70907e-007 -17.3422 -5.54679e-007 -6.48498 0.399363 -2.43609 1.30863 -2.54849 -54.1481 11.7864 -13.695 -31.5547 62.1327 -0.571789 -0.756982 3.97569e-016 -1.09332e-015 3.18055e-015 -1.10608e-006 1.57284e-007 -6.01684e-006 8.32771e-007 1.68729e-007 6.05058e-006 3.97569e-016 -1.09332e-015 3.18055e-015 -0.0146046 -8.76974e-005 -7.43651e-006 8.30978e-007 1.67947e-007 6.0506e-006 3.97569e-016 -1.09332e-015 3.18055e-015 -0.0187746 -0.00117723 6.01546e-005 8.30522e-007 1.67593e-007 6.05061e-006 3.97569e-016 -1.09332e-015 3.18055e-015 -0.012273 -0.0032496 0.000676048 8.31433e-007 1.67676e-007 6.05066e-006 3.97569e-016 -1.09332e-015 3.18055e-015 -1.10608e-006 1.57284e-007 -6.01684e-006 8.32771e-007 1.68729e-007 6.05058e-006 6.47537 0.401586 2.40272 -1.31614 -2.55155 54.2019 -11.7958 -13.6987 31.5466 -62.1288 -0.553663 0.76169 2.02892e-008 -1.72856e-008 1.18241e-009 1.82603e-007 -1.5557e-007 1.06417e-008 2.02892e-008 -1.72856e-008 1.18241e-009 2.02892e-008 -1.72856e-008 1.18241e-009 0.0149922 -9.07484e-005 9.18881e-006 2.02892e-008 -1.72854e-008 1.18465e-009 2.02892e-008 -1.72856e-008 1.18241e-009 0.0190129 -0.0011923 -6.2668e-005 2.02892e-008 -1.72854e-008 1.18506e-009 2.02892e-008 -1.72856e-008 1.18241e-009 0.0122746 -0.00324866 -0.000671597 2.02893e-008 -1.72853e-008 1.18369e-009 2.02892e-008 -1.72856e-008 1.18241e-009 1.82603e-007 -1.5557e-007 1.06417e-008 2.02892e-008 -1.72856e-008 1.18241e-009 -148.975 -40.236 -164.46 -173.547 41.6727 169.425 -8.98094 51.4771 1.03029 3.36648e-007 2.12031e-007 9.61467e-007 149.083 -40.3522 164.781 173.466 41.9928 -169.191 9.01362 51.7368 -0.970115 -1.20359e-006 3.2751e-006 -1.27935e-007 
0.0150592 19.4359 -33.3818 6.6139 -88.0418 -173.144 -0.0851112 -0.088763 -0.132589 -0.170428 -0.177339 -0.26531 -0.170428 -0.177303 -0.26531 0.000518162 -17.6745 0.000570003 -8.76881e-008 -15.6758 -2.25671e-008 -6.45911 0.838279 -4.1063 1.3091 -2.61145 -51.1377 11.2191 -13.1811 -29.3525 60.4534 -1.08611 -1.43337 1.59028e-015 -5.76476e-015 -0 3.18055e-015 -5.36719e-015 1.59028e-015 3.18055e-015 -5.96354e-015 1.59028e-015 1.59028e-015 -5.76476e-015 -0 -0.0145948 -8.92473e-005 1.11474e-005 -6.36111e-015 -2.64384e-014 -3.18055e-015 1.59028e-015 -5.76476e-015 -0 -0.0187566 -0.00117513 5.05989e-005 7.72312e-008 2.67119e-007 -3.44287e-006 1.59028e-015 -5.76476e-015 -0 -0.0123024 -0.00325713 0.000675244 -3.18055e-015 1.82882e-014 -1.59028e-015 1.59028e-015 -5.76476e-015 -0 3.18055e-015 -5.36719e-015 1.59028e-015 3.18055e-015 -5.96354e-015 1.59028e-015 6.44588 0.842711 4.04854 -1.32061 -2.61663 51.2437 -11.2333 -13.1875 29.341 -60.4424 -1.05166 1.44236 3.18055e-015 -7.95139e-016 1.59028e-015 1.59028e-015 -9.93923e-016 -0 1.59028e-015 -5.96354e-016 3.18055e-015 3.18055e-015 -7.95139e-016 1.59028e-015 0.0150182 -9.13754e-005 -4.95561e-006 4.77083e-015 -4.96962e-015 -1.59028e-015 3.18055e-015 -7.95139e-016 1.59028e-015 0.0190249 -0.00119244 -5.89788e-005 7.95139e-015 5.96354e-016 -9.54166e-015 3.18055e-015 -7.95139e-016 1.59028e-015 0.0123061 -0.00325725 -0.000674317 -0 -2.78299e-015 -0 3.18055e-015 -7.95139e-016 1.59028e-015 1.59028e-015 -9.93923e-016 -0 1.59028e-015 -5.96354e-016 3.18055e-015 -146.73 -45.243 -162.266 -173.165 45.904 169.587 -9.35497 49.4152 1.41931 7.82582e-008 3.21406e-006 -4.16727e-007 146.731 -45.2452 162.254 173.167 45.8897 -169.6 9.34871 49.3997 -1.4216 4.90464e-007 1.14199e-006 -8.21549e-008 
